<?xml version="1.0" encoding="UTF-8" standalone="no"?><!DOCTYPE svg PUBLIC "-//W3C//DTD SVG 1.1//EN" "http://www.w3.org/Graphics/SVG/1.1/DTD/svg11.dtd"><svg width="100%" height="100%" viewBox="0 0 246 246" version="1.1" xmlns="http://www.w3.org/2000/svg" xmlns:xlink="http://www.w3.org/1999/xlink" xml:space="preserve" xmlns:serif="http://www.serif.com/" style="fill-rule:evenodd;clip-rule:evenodd;stroke-linecap:round;stroke-linejoin:round;stroke-miterlimit:1.5;"><g><g><path d="M56.228,122.503c6.621,-1.566 12.45,-4.964 17.51,-10.134c9.341,27.21 26.815,39.611 49.165,43.132c23.854,-3.871 40.062,-18.335 48.306,-43.835c2.884,3.078 6.894,6.156 14.988,9.234l0,9.72c3.892,2.997 7.007,7.53 8.817,14.647c0.277,10.326 -3.984,17.159 -13.073,20.276c0.722,7.665 -1.503,15.088 -7.025,22.238c-6.96,4.078 -13.919,5.547 -20.879,3.446l-9.408,-3.446c-5.418,8.485 -12.857,11.972 -21.397,12.732c-10.51,-0.663 -17.405,-4.345 -20.63,-12.732c-4.246,5.303 -12.093,7.242 -21.543,6.366c-11.875,-4.816 -17.563,-13.165 -15.91,-25.705c-19.112,-9.554 -25.195,-21.573 -8.921,-37.822l-0,-8.117Z" style="fill:#41766e;"/><path d="M96.179,16.66c8.824,-14.629 20.25,-15.238 33.757,-4.634c13.155,-8.763 23.334,-6.236 30.245,8.69c13.53,0.791 19.902,6.224 18.342,16.8c12.167,2.383 15.868,30.253 -7.415,39.201c-4.503,6.797 -11.496,9.489 -22.244,5.987c-4.714,6.136 -11.349,8.03 -22.83,-0.773c-8.716,6.566 -15.871,6.437 -21.464,-0.386c-9.73,6.393 -18.109,6.289 -24.196,-4.828c-26.391,0.383 -29.741,-34.491 -10.147,-41.132c3.97,-14.415 11.575,-22.535 25.952,-18.925Z" style="fill:#41766e;"/><path d="M72.669,76.853c-1.693,39.08 7.493,69.215 50.064,77.889c33.719,-6.282 51.782,-30.217 51.159,-77.696c-7.069,5.348 -14.477,8.171 -22.586,5.793c-6.352,5.86 -14.462,6.5 -24.977,0c-7.793,4.835 -15.102,4.886 -21.854,-0.579c-10.288,6.281 -17.682,3.25 -23.806,-3.862l-8,-1.545Z" style="fill:#efce97;"/><path d="M182.428,70.872c52.93,27.488 27.975,73.894 -10.481,40.746l2.17,-35.207l8.311,-5.539Z" style="fill:#efce97;"/><path d="M63.332,70.872c-52.93,27.488 -27.975,73.894 10.481,40.746l-2.17,-35.207l-8.311,-5.539Z" style="fill:#efce97;"/><path d="M70.583,32.833c-0,-0 -6.745,1.987 -11.229,8.526c-2.219,3.237 -3.907,7.589 -3.901,13.383c0.01,9.018 3.136,14.798 7.378,18.531c5.564,4.898 13.216,6.221 18.737,6.438l0.183,-4.654c-4.654,-0.183 -11.153,-1.152 -15.843,-5.28c-3.427,-3.017 -5.789,-7.752 -5.797,-15.04c-0.005,-4.646 1.305,-8.148 3.085,-10.744c3.497,-5.101 8.723,-6.698 8.723,-6.698l-1.336,-4.462Z"/><path d="M56.412,128.506c0,-0 -5.431,2.469 -8.806,8.523c-1.679,3.01 -2.865,6.907 -2.59,11.833c0.346,6.218 3.032,10.822 6.331,14.165c5.686,5.762 13.229,7.672 13.229,7.672l1.147,-4.514c0,-0 -6.304,-1.61 -11.061,-6.43c-2.598,-2.632 -4.722,-6.255 -4.995,-11.152c-0.216,-3.871 0.688,-6.94 2.007,-9.306c2.581,-4.629 6.69,-6.562 6.69,-6.562l-1.952,-4.229Z"/><path d="M188.038,130.946c0.336,-2.378 0.514,-4.354 0.488,-6.199c-0.021,-1.48 -0.171,-2.881 -0.479,-4.33l-4.561,0.966c0.303,1.432 0.412,2.805 0.372,4.313c-0.036,1.382 -0.193,2.871 -0.437,4.598l4.617,0.652Z"/><path d="M123.919,83.089c-0,-0 1.261,2.598 5.006,4.591c2.081,1.109 4.989,2.056 8.967,2.143c3.328,0.073 5.961,-0.592 8.01,-1.515c4.727,-2.129 6.47,-5.682 6.47,-5.682l-4.148,-2.125c-0,-0 -1.199,2.19 -4.236,3.558c-1.532,0.69 -3.506,1.159 -5.994,1.105c-2.436,-0.054 -4.356,-0.499 -5.848,-1.113c-3.004,-1.238 -4.092,-3.111 -4.092,-3.111l-4.135,2.149Z"/><path d="M99.662,189.568c-0,-0 2.304,6.151 9.784,10.1c3.295,1.739 7.621,3.064 13.242,3.171c5.62,0.106 10.242,-1.55 13.879,-3.759c6.779,-4.115 10.102,-10.172 10.102,-10.172l-4.08,-2.254c0,-0 -2.796,5.015 -8.44,8.442c-2.981,1.81 -6.767,3.17 -11.372,3.083c-4.732,-0.09 -8.382,-1.169 -11.155,-2.633c-5.746,-3.033 -7.614,-7.661 -7.614,-7.661l-4.346,1.683Z"/><path d="M111.314,133.011c7.726,6.802 15.452,6.829 23.178,-0.079" style="fill:none;stroke:#000;stroke-width:4.66px;"/><path d="M71.451,77.74c-3.61,63.37 37.227,77.002 51.282,77.002" style="fill:none;stroke:#000;stroke-width:4.66px;"/><path d="M173.892,76.411c3.61,63.37 -37.105,78.331 -51.159,78.331" style="fill:none;stroke:#000;stroke-width:4.66px;"/><path d="M74.932,44.424c0,-0 -1.614,-3.198 -1.912,-7.694c-0.1,-1.499 -0.039,-3.119 0.336,-4.868c0.305,-1.422 0.867,-2.885 1.713,-4.419c1.019,-1.848 2.479,-3.767 4.608,-5.673c2.507,-2.297 5.112,-3.348 7.461,-3.773c2.32,-0.419 4.392,-0.209 5.901,0.085c1.446,0.281 2.358,0.602 2.358,0.602l2.008,-4.203c-0,-0 -2.17,-1.179 -5.505,-1.62c-1.648,-0.218 -3.584,-0.224 -5.658,0.152c-3.139,0.57 -6.605,2.045 -9.906,5.169c-2.523,2.442 -4.287,4.843 -5.363,7.203c-0.941,2.066 -1.433,4.063 -1.543,5.945c-0.129,2.206 0.128,4.23 0.734,5.986c0.537,1.551 1.251,2.831 1.987,3.909c1.439,2.105 2.781,3.199 2.781,3.199Z"/><path d="M66.868,138.542c-0.737,-0.811 -1.328,-1.528 -1.971,-2.241c-0.465,-0.515 -0.891,-0.969 -1.316,-1.429c-0.713,-0.77 -1.31,-1.467 -1.882,-2.128c-1.027,-1.188 -1.748,-2.221 -2.299,-3.181c-0.571,-0.995 -0.795,-1.897 -0.885,-2.808c-0.08,-0.804 0.016,-1.612 0.123,-2.501c0.028,-0.235 0.029,-0.475 0.055,-0.721l-4.562,-0.918c-0.228,0.963 -0.404,1.869 -0.445,2.749c-0.058,1.233 0.082,2.418 0.505,3.575c0.372,1.017 0.905,2.043 1.771,3.039c1.151,1.323 2.736,2.718 5.155,4.095c0.846,0.483 1.74,0.951 2.803,1.4c0.927,0.391 1.856,0.694 2.948,1.069Z"/><path d="M158.154,31.316c-0,0 1.993,-3.218 2.691,-7.709c0.278,-1.789 0.245,-3.733 -0.097,-5.701c-0.411,-2.367 -1.41,-4.71 -3.102,-6.807c-1.423,-1.763 -3.421,-3.278 -6.024,-4.503c-4.691,-2.148 -8.926,-2.539 -12.476,-2.087c-2.958,0.378 -5.456,1.325 -7.34,2.348c-2.765,1.5 -4.256,3.108 -4.256,3.108l3.24,3.347c-0,-0 1.228,-1.004 3.305,-2.023c1.491,-0.732 3.413,-1.46 5.703,-1.763c2.795,-0.37 6.126,-0.135 9.855,1.484c2.38,0.995 4.061,2.369 5.271,3.918c0.97,1.241 1.68,2.554 2.157,3.924c0.556,1.595 0.863,3.186 1.044,4.706c0.509,4.288 0.029,7.758 0.029,7.758Z"/><path d="M79.614,69.242c-0,-0 -0.884,2.682 -0.609,6.27c0.107,1.385 0.486,2.819 1.056,4.255c0.692,1.744 1.802,3.376 3.299,4.759c1.359,1.257 3.114,2.205 5.231,2.84c3.273,0.935 6.529,0.752 9.343,0.077c1.608,-0.386 3.072,-0.918 4.287,-1.493c2.441,-1.155 3.925,-2.372 3.925,-2.372l-2.709,-3.78c-0,-0 -1.002,0.572 -2.571,1.275c-1.124,0.503 -2.536,1.068 -4.13,1.461c-2.067,0.509 -4.447,0.779 -6.87,0.151c-1.737,-0.419 -3.088,-1.215 -4.182,-2.189c-0.867,-0.772 -1.615,-1.599 -2.218,-2.509c-0.611,-0.923 -1.123,-1.843 -1.555,-2.761c-0.214,-0.454 -0.432,-0.861 -0.625,-1.287c-1.203,-2.657 -1.672,-4.697 -1.672,-4.697Z"/><path d="M161.176,74.205c0,-0 4.826,2.184 10.711,1.935c2.401,-0.102 4.938,-0.64 7.385,-1.837c2.647,-1.294 5.119,-3.417 7.168,-6.577c1.505,-2.319 2.713,-5.248 3.578,-8.881c1.215,-5.579 0.461,-10.084 -1.038,-13.609c-2.052,-4.829 -5.56,-7.829 -7.632,-9.274c0.129,-1.17 0.12,-2.776 -0.38,-4.663c-0.597,-2.257 -1.921,-4.977 -4.72,-7.799c-2.461,-2.449 -5.358,-3.841 -8.098,-4.545c-4.814,-1.237 -9.041,-0.421 -9.041,-0.421l0.759,4.575c-0,0 3.281,-0.418 6.988,0.634c1.961,0.557 4.06,1.529 5.814,3.313c1.607,1.614 2.569,3.164 3.114,4.553c1.061,2.71 0.444,4.653 0.444,4.653l-0.805,2.103l2.012,1.013c-0,0 4.718,2.372 7.132,7.78c1.238,2.772 1.871,6.328 1.006,10.77c-0.671,3.877 -1.865,6.847 -3.388,9.131c-1.312,1.965 -2.831,3.421 -4.474,4.493c-1.976,1.29 -4.057,2.082 -6.091,2.527c-5.522,1.207 -10.444,0.126 -10.444,0.126Z"/><path d="M143.53,76.751c-0,0 0.886,2.152 3.054,4.568c0.483,0.539 1.04,1.021 1.658,1.519c0.866,0.696 1.851,1.292 2.923,1.828c1.043,0.521 2.176,0.909 3.374,1.166c2.59,0.556 5.459,0.338 8.462,-0.849c3.119,-1.305 5.333,-2.769 6.826,-4.153c2.857,-2.65 3.415,-4.911 3.415,-4.911l-4.403,-1.498c-0,-0 -0.233,0.322 -0.679,0.895c-0.509,0.654 -1.301,1.496 -2.488,2.408c-1.15,0.884 -2.64,1.837 -4.61,2.692c-2.022,0.919 -3.973,1.083 -5.784,0.88c-0.911,-0.102 -1.787,-0.248 -2.627,-0.483c-0.945,-0.265 -1.833,-0.559 -2.674,-0.906c-0.642,-0.265 -1.233,-0.51 -1.812,-0.766c-2.819,-1.245 -4.635,-2.39 -4.635,-2.39Z"/><path d="M137.023,176.571c0,-0 0.692,4.302 3.805,8.794c1.167,1.683 2.691,3.326 4.596,4.784c2.437,1.866 5.523,3.329 9.292,4.039c2.039,0.383 4.287,0.475 6.749,0.315c9.042,-0.712 14.618,-4.639 18.052,-9.345c2.682,-3.676 4.06,-7.864 4.679,-11.436c0.802,-4.623 0.379,-8.176 0.379,-8.176l-4.636,0.378c0,-0 0.103,2.993 -0.672,6.88c-0.583,2.921 -1.654,6.362 -3.833,9.401c-2.719,3.791 -7.151,6.925 -14.38,7.63c-2.063,0.23 -3.951,0.196 -5.685,0.002c-3.177,-0.356 -5.822,-1.294 -8.047,-2.556c-1.837,-1.041 -3.391,-2.226 -4.706,-3.459c-3.811,-3.571 -5.593,-7.251 -5.593,-7.251Z"/><path d="M95.083,27.909c0,-0 0.1,-4.636 1.957,-9.671c0.674,-1.826 1.552,-3.703 2.881,-5.406c1.619,-2.075 3.932,-3.756 7.185,-4.815c1.709,-0.557 3.667,-0.98 5.95,-1.106c1.98,-0.172 3.735,-0.133 5.3,0.044c3.069,0.347 5.385,1.229 7.132,2.524c0.644,0.478 1.218,0.98 1.733,1.515c1.447,1.502 2.466,3.119 3.128,4.693c1.26,2.993 1.417,5.519 1.417,5.519c-0,0 0.834,-4.282 -0.737,-8.898c-0.392,-1.154 -0.936,-2.295 -1.691,-3.403c-0.472,-0.693 -1.054,-1.332 -1.7,-1.957c-2.245,-2.168 -5.502,-3.908 -10.17,-4.536c-1.421,-0.192 -2.978,-0.227 -4.678,-0.172c-2.777,0.164 -5.186,0.61 -7.231,1.386c-4.149,1.573 -6.921,4.17 -8.703,7.082c-1.343,2.192 -2.2,4.54 -2.55,6.831c-0.291,1.911 -0.262,3.706 -0.132,5.29c0.25,3.037 0.909,5.08 0.909,5.08Z"/><path d="M131.782,72.52c-0,-0 -1.557,2.605 -4.348,5.497c-0.949,0.984 -2.01,1.995 -3.267,2.919c-1.79,1.317 -3.969,2.31 -6.61,2.765c-0.954,0.165 -1.965,0.291 -3.051,0.283c-1.01,0.011 -1.941,-0.109 -2.812,-0.281c-2.44,-0.481 -4.411,-1.516 -5.974,-2.915c-0.523,-0.468 -1.002,-0.95 -1.464,-1.439c-3.261,-3.452 -4.876,-7.279 -4.876,-7.279c0,0 0.041,3.836 1.923,7.939c0.494,1.077 1.151,2.115 1.936,3.121c1.731,2.219 4.169,4.087 7.373,5.019c1.179,0.343 2.479,0.484 3.875,0.511c1.428,-0 2.771,-0.108 4.008,-0.406c3.367,-0.808 6.037,-2.524 8.051,-4.571c1.278,-1.298 2.342,-2.67 3.082,-4.084c1.966,-3.761 2.154,-7.079 2.154,-7.079Z"/><path d="M108.948,178.237c-1.601,3.973 -4.504,6.99 -7.991,9.311c-2.207,1.47 -4.639,2.628 -7.224,3.381c-3.776,1.1 -7.808,1.276 -11.631,0.485c-2.466,-0.51 -4.854,-1.409 -6.986,-2.857c-1.578,-1.033 -2.9,-2.178 -4.03,-3.371c-3.105,-3.28 -4.647,-7.061 -4.943,-10.922c-0.093,-1.207 -0.079,-2.409 0.017,-3.606c0.415,-5.237 2.501,-10.23 5.703,-13.726c-4.044,3.018 -7.337,7.829 -8.607,13.275c-0.316,1.355 -0.455,2.747 -0.485,4.15c-0.101,4.749 1.363,9.623 4.945,13.848c1.294,1.525 2.907,2.924 4.794,4.227c2.68,1.782 5.652,2.977 8.755,3.488c4.545,0.749 9.33,0.173 13.65,-1.518c2.848,-1.114 5.538,-2.646 7.745,-4.694c3.274,-3.038 5.518,-6.97 6.288,-11.471Z"/><path d="M172.946,127.666c-0,0 1.991,0.574 4.871,1.636c1.87,0.69 4.05,1.581 6.211,2.846c1.215,0.711 2.42,1.515 3.513,2.503c0.721,0.652 1.368,1.397 1.973,2.203c2.004,2.669 3.183,6.284 2.585,11.286c-0.275,2.566 -0.803,4.753 -1.498,6.625c-1.35,3.636 -3.4,6.004 -5.74,7.556c-2.485,1.647 -5.244,2.353 -7.786,2.763c-1.618,0.26 -3.09,0.468 -4.42,0.558c-2.787,0.189 -4.644,0.093 -4.644,0.093c-0,-0 1.669,1.013 4.44,1.813c1.405,0.406 3.027,0.728 4.824,0.794c3.143,0.116 6.628,-0.624 9.796,-2.419c3.174,-1.798 5.998,-4.817 7.85,-9.503c0.862,-2.182 1.478,-4.757 1.818,-7.77c0.651,-6.5 -0.997,-11.211 -3.773,-14.531c-0.845,-1.011 -1.8,-1.882 -2.814,-2.645c-1.224,-0.921 -2.503,-1.736 -3.859,-2.318c-2.133,-0.915 -4.313,-1.407 -6.302,-1.675c-0.749,-0.101 -1.449,-0.185 -2.122,-0.202c-2.967,-0.076 -4.923,0.387 -4.923,0.387Z"/><path d="M62.576,71.181c-22.324,10.285 -42.299,42.151 -19.453,50.69c10.569,3.951 23.918,-2.381 30.69,-10.925" style="fill:#efce97;stroke:#000;stroke-width:4.66px;"/><path d="M71.226,87.055c-9.387,2.447 -32.692,19.659 -27.305,27.763c4.602,6.922 25.311,-5.014 29.892,-9.966l-2.587,-17.797Z"/><path d="M183.184,71.181c22.324,10.285 42.299,42.151 19.453,50.69c-10.569,3.951 -23.918,-2.381 -30.69,-10.925" style="fill:none;stroke:#000;stroke-width:4.66px;"/><path d="M174.534,87.055c9.387,2.447 32.692,19.659 27.305,27.763c-4.602,6.922 -25.311,-5.014 -29.892,-9.966l2.587,-17.797Z"/><ellipse cx="99.651" cy="102.886" rx="5.869" ry="7.91"/><ellipse cx="146.207" cy="102.886" rx="5.869" ry="7.91"/><ellipse cx="101.419" cy="100.504" rx="1.768" ry="2.383" style="fill:#fff;"/><ellipse cx="144.439" cy="100.504" rx="1.768" ry="2.383" style="fill:#fff;"/><path d="M122.733,154.742l-0,-16.115" style="fill:none;stroke:#000;stroke-width:4.66px;"/><ellipse cx="123.02" cy="229.554" rx="71.548" ry="11.683"/><path d="M84.705,194.147l12.644,-2.968c0.191,5.538 0.923,18.356 -1.592,30.032l-20.325,1.205c5.151,-8.792 8.618,-17.334 9.273,-28.269Z"/><path d="M100.55,189.475l11.246,8.699c0.591,7.022 1.023,12.621 0.905,21.925l-14.346,0.424c2.353,-11.685 2.54,-18.753 2.195,-31.048Z"/><path d="M144.993,189.475l-11.246,8.699c-0.59,7.022 -1.023,12.621 -0.905,21.925l14.346,0.424c-2.353,-11.685 -2.539,-18.753 -2.195,-31.048Z"/><path d="M160.88,194.147l-12.645,-2.968c-0.191,5.538 -0.923,18.356 1.593,30.032l20.324,1.205c-5.151,-8.792 -8.618,-17.334 -9.272,-28.269Z"/></g></g></svg>